<?xml version="1.0" encoding="utf-8"?>
<svg version="1.1" id="Layer_1" xmlns="http://www.w3.org/2000/svg" xmlns:xlink="http://www.w3.org/1999/xlink" x="0px" y="0px"
	 viewBox="0 0 24 24" style="enable-background:new 0 0 24 24;" xml:space="preserve">
<path d="M12.8,19.5c-0.2,0-0.4-0.1-0.5-0.2c-0.3-0.3-0.3-0.8,0-1.1l5.5-5.5H4.5c-0.4,0-0.8-0.3-0.8-0.8s0.3-0.8,0.8-0.8h13.2
	l-5.5-5.5c-0.3-0.3-0.3-0.8,0-1.1s0.8-0.3,1.1,0l6.8,6.8c0.1,0.1,0.1,0.2,0.2,0.2c0,0.1,0.1,0.2,0.1,0.3s0,0.2-0.1,0.3
	c0,0.1-0.1,0.2-0.2,0.2l-6.8,6.8C13.1,19.4,12.9,19.5,12.8,19.5z"/>
</svg>
