<svg width="24" height="24" viewBox="0 0 24 24" fill="none" xmlns="http://www.w3.org/2000/svg">
<path d="M20.5595 9.44061L13.0595 1.94061C12.4735 1.35468 11.522 1.35468 10.936 1.94061L3.43604 9.44061C2.8501 10.0266 2.8501 10.9781 3.43604 11.564C4.02197 12.15 4.97354 12.15 5.55947 11.564L10.5001 6.62343V21C10.5001 21.8297 11.1704 22.5 12.0001 22.5C12.8298 22.5 13.5001 21.8297 13.5001 21V6.62343L18.4407 11.564C18.7313 11.8547 19.1157 12.0047 19.5001 12.0047C19.8845 12.0047 20.2688 11.8594 20.5595 11.564C21.1454 10.9734 21.1454 10.0266 20.5595 9.44061Z" fill="white"/>
</svg>
