<svg width="97" height="40" viewBox="0 0 97 40" fill="none" xmlns="http://www.w3.org/2000/svg">
<g clip-path="url(#clip0_727_791)">
<path d="M45.7518 19.1462C45.9555 19.1875 46.1026 19.2417 46.2522 19.2443C47.3123 19.2494 48.3749 19.2752 49.435 19.2339C50.6679 19.1875 51.3876 18.5401 51.5965 17.3175C51.6893 16.7784 51.7358 16.2239 51.7409 15.6771C51.7564 13.2009 51.7564 10.7248 51.7409 8.25122C51.7384 7.70441 51.6893 7.14985 51.5888 6.61078C51.4159 5.6848 50.8846 4.95744 49.9406 4.82331C48.5555 4.62729 47.1523 4.71498 45.7827 4.78204C45.628 5.87052 45.6099 17.8334 45.7518 19.1488M40.5132 0.0257896C40.5132 0.0257896 41.2612 0.0309483 41.5733 0.028369C44.6814 0.0257896 47.7868 0.0232103 50.8949 0.028369C51.6403 0.028369 52.378 0.0773759 53.1106 0.283721C54.8077 0.760894 55.8911 1.8571 56.4559 3.48465C56.8041 4.49058 56.9589 5.54552 56.9615 6.61336C56.9666 10.0361 56.9563 13.4563 56.9666 16.879C56.9666 17.7508 56.8377 18.6097 56.6597 19.4506C56.3089 21.0936 55.4474 22.422 53.8044 23.2989C54.947 28.8135 56.2702 34.2842 57.4644 39.8607H52.5379C51.3695 34.5215 49.012 23.7942 49.012 23.7942L45.6924 23.8174V39.8375H40.5158V0.0257896H40.5132Z" fill="white"/>
<path d="M96.7861 39.8556H91.7873C91.7873 33.869 91.7925 21.7307 91.7925 21.7307L85.0682 21.7385C85.0682 21.7385 85.0605 38.5504 85.0605 39.8401H79.9199V0.0180664C79.9199 0.0180664 84.0442 0.0258043 85.0192 0.0258043C85.1276 5.67966 85.0012 11.2768 85.0914 16.9461H91.728V0.105763C93.4845 0.105763 96.8866 0.110922 96.8866 0.110922L96.7861 39.8556Z" fill="white"/>
<path d="M19.4919 0.0308996C20.9673 0.0308996 22.5665 0.0308996 24.0161 0.0308996C24.2095 0.0308996 24.6944 0.0283203 24.6944 0.0283203C24.6944 0.0283203 24.7073 1.09874 24.7073 1.55785C24.715 11.5475 24.715 21.5372 24.7073 31.5269C24.7073 32.1588 24.7254 32.7856 24.8569 33.4046C25.0555 34.3435 25.6023 34.9496 26.5773 35.1018C27.6323 35.2669 28.6949 35.2721 29.7447 35.1173C30.7971 34.9625 31.3774 34.2997 31.5115 33.206C31.5605 32.8166 31.5373 32.4219 31.5373 32.0273C31.5373 21.8803 31.5373 11.7332 31.5373 1.58623V0.110858H36.7527C36.7579 0.63188 36.7501 0.93108 36.7424 1.45468C36.7527 9.63626 36.7475 17.8153 36.7475 25.9969C36.7475 28.1609 36.7579 30.3224 36.7424 32.4864C36.7346 33.4665 36.7011 34.4441 36.4561 35.4113C35.837 37.8746 34.3746 39.4351 31.8004 39.7626C29.4146 40.067 27.0003 40.0876 24.6299 39.7859C21.7411 39.417 20.1935 37.7301 19.7267 34.8568C19.5642 33.8483 19.4816 32.8346 19.4816 31.8055C19.4945 21.6971 19.4894 11.5888 19.4945 1.48047C19.4894 1.05231 19.4739 0.644776 19.4816 0.0308996" fill="white"/>
<path d="M5.31597 20.6371C6.38638 20.6371 7.48259 20.6474 8.5788 20.6345C10.049 20.6165 10.7248 19.9459 10.7583 18.4628C10.779 17.48 10.7635 16.4973 10.7635 15.5146C10.7635 12.6825 10.7738 9.85301 10.7583 7.0235C10.7532 5.81638 10.2554 4.93426 9.18494 4.84398C7.73536 4.72275 6.57467 4.7795 5.27212 4.79755L5.31339 20.6371H5.31597ZM0 0.0232424C0 0.0232424 1.02399 0.0232424 1.41088 0.0232424C4.16301 0.0180838 6.73459 0.0180838 9.48672 0.0309803C10.1522 0.0335597 10.8331 0.0309803 11.4831 0.157367C14.0186 0.642278 15.7364 2.40395 15.8628 5.00906C16.2987 10.3637 16.0769 17.3923 15.8679 20.3328C15.7287 23.299 13.7065 25.138 10.7403 25.3134C9.36807 25.396 7.99071 25.3366 6.61336 25.3573C6.18777 25.3624 5.14057 25.3676 5.14057 25.3676C5.14057 25.3676 5.12252 26.3709 5.12252 26.8275C5.1122 30.7197 5.11736 34.6118 5.11478 38.504C5.11478 38.9296 5.11478 39.8453 5.11478 39.8453H0.0799587L0 0.0232424Z" fill="white"/>
<path d="M76.5721 11.1298H71.38C71.38 11.1298 71.4006 9.12567 71.3696 8.15585C71.3542 7.60646 71.3954 7.05964 71.2639 6.51283C71.0034 5.42694 70.423 4.86465 69.3294 4.77437C68.7439 4.72536 68.1481 4.72794 67.56 4.76663C66.4793 4.83885 65.8293 5.46821 65.7055 6.54378C65.6565 6.97195 65.6616 7.40785 65.6616 7.8386C65.6616 15.9402 65.7003 24.0418 65.6384 32.1435C65.6178 34.9936 66.7862 35.2773 68.7929 35.2206C70.5778 35.169 71.2716 34.5113 71.3645 32.7161C71.3954 32.097 71.4238 30.7919 71.4238 30.7919C71.4238 30.7919 74.8414 30.7996 76.5824 30.7996C76.6598 32.7754 76.7346 34.7125 76.0098 36.5979C75.3856 38.2255 74.1733 39.2211 72.5071 39.6415C71.7514 39.8324 70.9853 39.8917 70.1754 39.9356C70.1754 39.9356 66.7191 40.0878 64.9987 39.7499C62.5897 39.2753 61.0421 37.8102 60.6165 35.4295C60.472 34.6222 60.374 33.7994 60.374 32.9688C60.3843 24.3178 60.3818 15.6642 60.3792 7.01322C60.3792 6.02792 60.4746 5.05036 60.73 4.09859C61.3722 1.70757 62.9662 0.314738 65.4114 0.11871C67.4491 -0.0437868 69.5022 -0.0412075 71.5399 0.11871C74.0985 0.319896 75.8112 1.90359 76.3245 4.42101C76.7707 6.60053 76.567 11.1298 76.567 11.1298" fill="white"/>
</g>
<defs>
<clipPath id="clip0_727_791">
<rect width="96.8842" height="40" fill="white"/>
</clipPath>
</defs>
</svg>
