<?xml version="1.0" encoding="utf-8"?>
<!-- Generator: Adobe Illustrator 27.2.0, SVG Export Plug-In . SVG Version: 6.00 Build 0)  -->
<svg version="1.1" id="Layer_1" xmlns="http://www.w3.org/2000/svg" xmlns:xlink="http://www.w3.org/1999/xlink" x="0px" y="0px"
	 viewBox="0 0 80 80" style="enable-background:new 0 0 80 80;" xml:space="preserve">
<style type="text/css">
	.st0{fill:#17375E;}
</style>
<path class="st0" d="M70,0H10C5.9,0,2.5,3.4,2.5,7.5v65c0,4.1,3.4,7.5,7.5,7.5h60c4.1,0,7.5-3.4,7.5-7.5v-65C77.5,3.4,74.1,0,70,0z
	 M67.5,70h-55V10h55V70z M32.5,35c0-4.1,3.4-7.5,7.5-7.5s7.5,3.4,7.5,7.5s-3.4,7.5-7.5,7.5S32.5,39.1,32.5,35z M45,42.5H35
	c-4.1,0-7.5,2.2-7.5,5v5h25v-5C52.5,44.8,49.1,42.5,45,42.5z"/>
</svg>
