<svg width="80" height="80" viewBox="0 0 80 80" fill="none" xmlns="http://www.w3.org/2000/svg">
<path d="M70 0H10C5.875 0 2.5 3.375 2.5 7.5V72.5C2.5 76.625 5.875 80 10 80H70C74.125 80 77.5 76.625 77.5 72.5V7.5C77.5 3.375 74.125 0 70 0ZM67.5 70H12.5V10H67.5V70ZM22.5 45H57.5V50H22.5V45ZM22.5 55H57.5V60H22.5V55ZM27.5 22.5C27.5 18.3594 30.8594 15 35 15C39.1406 15 42.5 18.3594 42.5 22.5C42.5 26.6406 39.1406 30 35 30C30.8594 30 27.5 26.6406 27.5 22.5ZM40 30H30C25.875 30 22.5 32.25 22.5 35V40H47.5V35C47.5 32.25 44.125 30 40 30Z" fill="#17375E"/>
</svg>
