<svg width="44" height="50" viewBox="0 0 44 50" fill="none" xmlns="http://www.w3.org/2000/svg">
<path d="M37.9886 28.7833C37.3222 28.1267 35.8444 27.7791 33.5955 27.7495C32.0731 27.7327 30.2409 27.8667 28.3137 28.1366C27.4507 27.6386 26.5612 27.0968 25.8631 26.4443C23.9851 24.6906 22.4174 22.2562 21.4405 19.5793C21.5041 19.3293 21.5583 19.1096 21.6088 18.8854C21.6088 18.8854 22.6667 12.8766 22.3868 10.8451C22.3481 10.5665 22.3245 10.4856 22.2497 10.2691L22.1578 10.0331C21.87 9.36938 21.3058 8.66616 20.4212 8.70454L19.8882 8.68774C18.9018 8.68774 18.098 9.19224 17.887 9.94624C17.2455 12.3112 17.9074 15.8492 19.1067 20.4315L18.7997 21.1779C17.9409 23.2714 16.8646 25.38 15.915 27.2403L15.7915 27.4822C14.7925 29.4373 13.886 31.0968 13.0642 32.5028L12.2158 32.9514C12.1541 32.984 10.6999 33.7531 10.3589 33.9594C7.46557 35.687 5.54819 37.648 5.23013 39.2043C5.12895 39.7009 5.20425 40.3365 5.71909 40.6307L6.5397 41.0437C6.89575 41.222 7.27104 41.3124 7.65561 41.3124C9.71645 41.3124 12.1088 38.7454 15.4045 32.9937C19.2097 31.7549 23.5418 30.7252 27.3387 30.1573C30.2322 31.7866 33.791 32.9182 36.0371 32.9182C36.4359 32.9182 36.7798 32.8801 37.0591 32.8062C37.4899 32.6921 37.853 32.4464 38.0744 32.1131C38.5102 31.4573 38.5985 30.554 38.4802 29.629C38.4451 29.3544 38.2258 29.015 37.9886 28.7833ZM7.20903 39.7485C7.58491 38.721 9.07231 36.6897 11.2718 34.8874C11.4101 34.7752 11.7507 34.4561 12.0625 34.1597C9.76255 37.8279 8.22231 39.2899 7.20903 39.7485ZM20.2358 9.75034C20.8982 9.75034 21.275 11.42 21.3063 12.9854C21.3375 14.5508 20.9714 15.6495 20.5173 16.4624C20.1413 15.2588 19.9594 13.3618 19.9594 12.1213C19.9594 12.1213 19.9318 9.75034 20.2358 9.75034ZM16.3499 31.1277C16.8114 30.3017 17.2915 29.4306 17.7821 28.5067C18.978 26.2452 19.7332 24.4756 20.2957 23.021C21.4143 25.0564 22.8076 26.7867 24.4453 28.173C24.6497 28.3459 24.8662 28.5198 25.0935 28.693C21.7629 29.352 18.8843 30.1535 16.3499 31.1277ZM37.3485 30.9401C37.1457 31.0669 36.5647 31.1403 36.1909 31.1403C34.9844 31.1403 33.492 30.5888 31.3996 29.6917C32.2037 29.6323 32.9407 29.602 33.6018 29.602C34.8119 29.602 35.1702 29.5967 36.3533 29.8985C37.5363 30.2002 37.5514 30.8132 37.3485 30.9401Z" fill="#D6534A"/>
<path d="M41.6897 11.1854C40.6053 9.70625 39.0934 7.97734 37.433 6.31699C35.7727 4.65664 34.0438 3.14492 32.5646 2.06025C30.0464 0.213574 28.8248 0 28.125 0H3.90625C1.75234 0 0 1.75234 0 3.90625V46.0938C0 48.2477 1.75225 50 3.90625 50H39.8438C41.9977 50 43.75 48.2477 43.75 46.0938V15.625C43.75 14.9252 43.5365 13.7036 41.6897 11.1854ZM35.2233 8.52666C36.7224 10.0257 37.8991 11.3781 38.7673 12.5H31.25V4.98311C32.3722 5.85127 33.7245 7.02793 35.2233 8.52666ZM40.625 46.0938C40.625 46.5172 40.2672 46.875 39.8438 46.875H3.90625C3.48281 46.875 3.125 46.5172 3.125 46.0938V3.90625C3.125 3.48281 3.48281 3.125 3.90625 3.125C3.90625 3.125 28.1229 3.1249 28.125 3.125V14.0625C28.125 14.9254 28.8244 15.625 29.6875 15.625H40.625V46.0938Z" fill="#D6534A"/>
</svg>
