<svg width="80" height="80" viewBox="0 0 80 80" fill="none" xmlns="http://www.w3.org/2000/svg">
<path d="M35.1562 21.6406L32.3438 18.8281H22.5V37.1094H45V21.6406H35.1562ZM33.75 35L28.8281 30.0781H32.3438V24.4531H35.1562V30.0781H38.6719L33.75 35Z" fill="#17375E"/>
<path d="M70 0H10C5.875 0 2.5 3.375 2.5 7.5V72.5C2.5 76.625 5.875 80 10 80H70C74.125 80 77.5 76.625 77.5 72.5V7.5C77.5 3.375 74.125 0 70 0ZM67.5 70H12.5V10H67.5V70ZM22.5 45H57.5V50H22.5V45ZM22.5 55H57.5V60H22.5V55Z" fill="#17375E"/>
</svg>
